<svg width="283" height="33" viewBox="0 0 283 33" fill="none" xmlns="http://www.w3.org/2000/svg">
<path d="M43.6973 24V8.25195H49.6377C50.6833 8.25195 51.4818 8.30208 52.0332 8.40234C52.8066 8.53125 53.4548 8.77832 53.9775 9.14355C54.5003 9.50163 54.9193 10.0065 55.2344 10.6582C55.5566 11.3099 55.7178 12.026 55.7178 12.8066C55.7178 14.1458 55.2917 15.2809 54.4395 16.2119C53.5872 17.1357 52.0475 17.5977 49.8203 17.5977H45.7812V24H43.6973ZM45.7812 15.7393H49.8525C51.1989 15.7393 52.1549 15.4886 52.7207 14.9873C53.2865 14.486 53.5693 13.7806 53.5693 12.8711C53.5693 12.2122 53.401 11.6501 53.0645 11.1846C52.735 10.7119 52.2982 10.4004 51.7539 10.25C51.403 10.1569 50.7549 10.1104 49.8096 10.1104H45.7812V15.7393ZM58.0811 24V8.25195H60.0146V24H58.0811ZM70.4668 22.5928C69.7507 23.2015 69.0596 23.6312 68.3936 23.8818C67.7347 24.1325 67.0257 24.2578 66.2666 24.2578C65.0133 24.2578 64.0501 23.9535 63.377 23.3447C62.7038 22.7288 62.3672 21.9447 62.3672 20.9922C62.3672 20.4336 62.4925 19.9251 62.7432 19.4668C63.001 19.0013 63.334 18.6289 63.7422 18.3496C64.1576 18.0703 64.623 17.859 65.1387 17.7158C65.5182 17.6156 66.0911 17.5189 66.8574 17.4258C68.4186 17.2396 69.568 17.0176 70.3057 16.7598C70.3128 16.4948 70.3164 16.3265 70.3164 16.2549C70.3164 15.4671 70.1338 14.9121 69.7686 14.5898C69.2744 14.153 68.5404 13.9346 67.5664 13.9346C66.6569 13.9346 65.9837 14.0957 65.5469 14.418C65.1172 14.7331 64.7985 15.2952 64.5908 16.1045L62.7002 15.8467C62.8721 15.0374 63.1549 14.3857 63.5488 13.8916C63.9427 13.3903 64.512 13.0072 65.2568 12.7422C66.0016 12.4701 66.8646 12.334 67.8457 12.334C68.8197 12.334 69.611 12.4486 70.2197 12.6777C70.8285 12.9069 71.276 13.1969 71.5625 13.5479C71.849 13.8916 72.0495 14.3285 72.1641 14.8584C72.2285 15.1878 72.2607 15.7822 72.2607 16.6416V19.2197C72.2607 21.0173 72.3001 22.1559 72.3789 22.6357C72.4648 23.1084 72.6296 23.5632 72.873 24H70.8535C70.653 23.599 70.5241 23.1299 70.4668 22.5928ZM70.3057 18.2744C69.6038 18.5609 68.5511 18.8044 67.1475 19.0049C66.3525 19.1195 65.7904 19.2484 65.4609 19.3916C65.1315 19.5348 64.8773 19.7461 64.6982 20.0254C64.5192 20.2975 64.4297 20.6019 64.4297 20.9385C64.4297 21.4541 64.623 21.8838 65.0098 22.2275C65.4036 22.5713 65.9766 22.7432 66.7285 22.7432C67.4733 22.7432 68.1357 22.582 68.7158 22.2598C69.2959 21.9303 69.722 21.4827 69.9941 20.917C70.2018 20.4801 70.3057 19.8356 70.3057 18.9834V18.2744ZM75.1826 28.3936L74.9678 26.5781C75.3903 26.6927 75.7591 26.75 76.0742 26.75C76.5039 26.75 76.8477 26.6784 77.1055 26.5352C77.3633 26.3919 77.5745 26.1914 77.7393 25.9336C77.861 25.7402 78.0579 25.2604 78.3301 24.4941C78.3659 24.3867 78.4232 24.2292 78.502 24.0215L74.1729 12.5918H76.2568L78.6309 19.1982C78.9388 20.0361 79.2145 20.917 79.458 21.8408C79.68 20.9528 79.945 20.0863 80.2529 19.2412L82.6914 12.5918H84.625L80.2852 24.1934C79.8197 25.4466 79.458 26.3096 79.2002 26.7822C78.8564 27.4196 78.4626 27.8851 78.0186 28.1787C77.5745 28.4795 77.0446 28.6299 76.4287 28.6299C76.0563 28.6299 75.641 28.5511 75.1826 28.3936ZM85.8066 18.9404L87.7725 18.7686C87.8656 19.5563 88.0804 20.2044 88.417 20.7129C88.7607 21.2142 89.2907 21.6224 90.0068 21.9375C90.723 22.2454 91.5286 22.3994 92.4238 22.3994C93.2188 22.3994 93.9206 22.2812 94.5293 22.0449C95.138 21.8086 95.5892 21.4863 95.8828 21.0781C96.1836 20.6628 96.334 20.2116 96.334 19.7246C96.334 19.2305 96.1908 18.8008 95.9043 18.4355C95.6178 18.0632 95.1452 17.7516 94.4863 17.501C94.0638 17.3363 93.1292 17.082 91.6826 16.7383C90.236 16.3874 89.2227 16.0579 88.6426 15.75C87.8906 15.3561 87.3285 14.8691 86.9561 14.2891C86.5908 13.7018 86.4082 13.0465 86.4082 12.3232C86.4082 11.5283 86.6338 10.7871 87.085 10.0996C87.5361 9.40495 88.195 8.87858 89.0615 8.52051C89.9281 8.16243 90.8913 7.9834 91.9512 7.9834C93.1185 7.9834 94.1462 8.17318 95.0342 8.55273C95.9294 8.92513 96.6169 9.47656 97.0967 10.207C97.5765 10.9375 97.8343 11.7646 97.8701 12.6885L95.8721 12.8389C95.7646 11.8434 95.3994 11.0915 94.7764 10.583C94.1605 10.0745 93.2474 9.82031 92.0371 9.82031C90.7767 9.82031 89.8564 10.0531 89.2764 10.5186C88.7035 10.9769 88.417 11.5319 88.417 12.1836C88.417 12.7493 88.6211 13.2148 89.0293 13.5801C89.4303 13.9453 90.4759 14.3213 92.166 14.708C93.8633 15.0876 95.027 15.4206 95.6572 15.707C96.5739 16.1296 97.2507 16.6667 97.6875 17.3184C98.1243 17.9629 98.3428 18.7077 98.3428 19.5527C98.3428 20.3906 98.1029 21.182 97.623 21.9268C97.1432 22.6644 96.4521 23.2409 95.5498 23.6562C94.6546 24.0645 93.6449 24.2686 92.5205 24.2686C91.0954 24.2686 89.8994 24.0609 88.9326 23.6455C87.973 23.2301 87.2174 22.6071 86.666 21.7764C86.1217 20.9385 85.8353 19.9932 85.8066 18.9404ZM105.164 22.2705L105.443 23.9785C104.899 24.0931 104.412 24.1504 103.982 24.1504C103.281 24.1504 102.736 24.0394 102.35 23.8174C101.963 23.5954 101.691 23.3053 101.533 22.9473C101.376 22.582 101.297 21.8193 101.297 20.6592V14.0957H99.8789V12.5918H101.297V9.7666L103.22 8.60645V12.5918H105.164V14.0957H103.22V20.7666C103.22 21.318 103.252 21.6725 103.316 21.8301C103.388 21.9876 103.499 22.113 103.649 22.2061C103.807 22.2992 104.029 22.3457 104.315 22.3457C104.53 22.3457 104.813 22.3206 105.164 22.2705ZM114.51 22.5928C113.794 23.2015 113.103 23.6312 112.437 23.8818C111.778 24.1325 111.069 24.2578 110.31 24.2578C109.056 24.2578 108.093 23.9535 107.42 23.3447C106.747 22.7288 106.41 21.9447 106.41 20.9922C106.41 20.4336 106.535 19.9251 106.786 19.4668C107.044 19.0013 107.377 18.6289 107.785 18.3496C108.201 18.0703 108.666 17.859 109.182 17.7158C109.561 17.6156 110.134 17.5189 110.9 17.4258C112.462 17.2396 113.611 17.0176 114.349 16.7598C114.356 16.4948 114.359 16.3265 114.359 16.2549C114.359 15.4671 114.177 14.9121 113.812 14.5898C113.317 14.153 112.583 13.9346 111.609 13.9346C110.7 13.9346 110.027 14.0957 109.59 14.418C109.16 14.7331 108.841 15.2952 108.634 16.1045L106.743 15.8467C106.915 15.0374 107.198 14.3857 107.592 13.8916C107.986 13.3903 108.555 13.0072 109.3 12.7422C110.045 12.4701 110.908 12.334 111.889 12.334C112.863 12.334 113.654 12.4486 114.263 12.6777C114.871 12.9069 115.319 13.1969 115.605 13.5479C115.892 13.8916 116.092 14.3285 116.207 14.8584C116.271 15.1878 116.304 15.7822 116.304 16.6416V19.2197C116.304 21.0173 116.343 22.1559 116.422 22.6357C116.508 23.1084 116.673 23.5632 116.916 24H114.896C114.696 23.599 114.567 23.1299 114.51 22.5928ZM114.349 18.2744C113.647 18.5609 112.594 18.8044 111.19 19.0049C110.396 19.1195 109.833 19.2484 109.504 19.3916C109.174 19.5348 108.92 19.7461 108.741 20.0254C108.562 20.2975 108.473 20.6019 108.473 20.9385C108.473 21.4541 108.666 21.8838 109.053 22.2275C109.447 22.5713 110.02 22.7432 110.771 22.7432C111.516 22.7432 112.179 22.582 112.759 22.2598C113.339 21.9303 113.765 21.4827 114.037 20.917C114.245 20.4801 114.349 19.8356 114.349 18.9834V18.2744ZM123.533 22.2705L123.812 23.9785C123.268 24.0931 122.781 24.1504 122.352 24.1504C121.65 24.1504 121.105 24.0394 120.719 23.8174C120.332 23.5954 120.06 23.3053 119.902 22.9473C119.745 22.582 119.666 21.8193 119.666 20.6592V14.0957H118.248V12.5918H119.666V9.7666L121.589 8.60645V12.5918H123.533V14.0957H121.589V20.7666C121.589 21.318 121.621 21.6725 121.686 21.8301C121.757 21.9876 121.868 22.113 122.019 22.2061C122.176 22.2992 122.398 22.3457 122.685 22.3457C122.899 22.3457 123.182 22.3206 123.533 22.2705ZM125.445 10.4756V8.25195H127.379V10.4756H125.445ZM125.445 24V12.5918H127.379V24H125.445ZM129.613 18.2959C129.613 16.1833 130.201 14.6185 131.375 13.6016C132.356 12.7565 133.552 12.334 134.963 12.334C136.531 12.334 137.813 12.8496 138.809 13.8809C139.804 14.9049 140.302 16.3229 140.302 18.1348C140.302 19.6029 140.08 20.7594 139.636 21.6045C139.199 22.4424 138.558 23.0941 137.713 23.5596C136.875 24.0251 135.958 24.2578 134.963 24.2578C133.366 24.2578 132.073 23.7458 131.085 22.7217C130.104 21.6976 129.613 20.2223 129.613 18.2959ZM131.601 18.2959C131.601 19.7568 131.919 20.8525 132.557 21.583C133.194 22.3063 133.996 22.668 134.963 22.668C135.923 22.668 136.721 22.3027 137.358 21.5723C137.996 20.8418 138.314 19.7282 138.314 18.2314C138.314 16.8206 137.992 15.7536 137.348 15.0303C136.71 14.2998 135.915 13.9346 134.963 13.9346C133.996 13.9346 133.194 14.2962 132.557 15.0195C131.919 15.7428 131.601 16.835 131.601 18.2959ZM142.579 24V12.5918H144.319V14.2139C145.157 12.9606 146.368 12.334 147.95 12.334C148.638 12.334 149.268 12.4593 149.841 12.71C150.421 12.9535 150.854 13.2757 151.141 13.6768C151.427 14.0778 151.628 14.554 151.742 15.1055C151.814 15.4635 151.85 16.0902 151.85 16.9854V24H149.916V17.0605C149.916 16.2728 149.841 15.6855 149.69 15.2988C149.54 14.9049 149.271 14.5934 148.885 14.3643C148.505 14.1279 148.058 14.0098 147.542 14.0098C146.718 14.0098 146.006 14.2712 145.404 14.7939C144.81 15.3167 144.513 16.3086 144.513 17.7695V24H142.579ZM160.411 19.875L162.441 19.7031C162.592 20.6914 162.939 21.4362 163.483 21.9375C164.035 22.4316 164.697 22.6787 165.471 22.6787C166.402 22.6787 167.189 22.3278 167.834 21.626C168.479 20.9242 168.801 19.9932 168.801 18.833C168.801 17.7301 168.489 16.86 167.866 16.2227C167.25 15.5853 166.441 15.2666 165.438 15.2666C164.815 15.2666 164.253 15.4098 163.752 15.6963C163.251 15.9756 162.857 16.3408 162.57 16.792L160.755 16.5557L162.28 8.4668H170.111V10.3145H163.827L162.979 14.5469C163.924 13.888 164.916 13.5586 165.954 13.5586C167.329 13.5586 168.489 14.0348 169.435 14.9873C170.38 15.9398 170.853 17.1644 170.853 18.6611C170.853 20.0863 170.437 21.318 169.606 22.3564C168.597 23.6312 167.218 24.2686 165.471 24.2686C164.038 24.2686 162.868 23.8675 161.958 23.0654C161.056 22.2633 160.54 21.1999 160.411 19.875Z" fill="white"/>
<rect x="3" y="3" width="27" height="27" fill="white"/>
<rect x="0.5" y="0.5" width="32" height="32" stroke="#CD06FF"/>
</svg>
